<svg width="5" height="8" viewBox="0 0 5 8" fill="none"  xmlns="http://www.w3.org/2000/svg">
<path d="M1.69998 0.700025L4.29998 3.30002C4.39998 3.40002 4.47498 3.50836 4.52498 3.62502C4.57498 3.74169 4.59998 3.86669 4.59998 4.00002C4.59998 4.13336 4.57498 4.25836 4.52498 4.37502C4.47498 4.49169 4.39998 4.60002 4.29998 4.70002L1.69998 7.30002C1.38331 7.61669 1.02081 7.68752 0.612476 7.51252C0.204142 7.33752 -2.42679e-05 7.02502 -2.42286e-05 6.57502L-2.37783e-05 1.42502C-2.3739e-05 0.975024 0.204143 0.662525 0.612476 0.487525C1.02081 0.312525 1.38331 0.383358 1.69998 0.700025Z" fill="currentColor"/>
</svg>
