<svg width="19" height="22" viewBox="0 0 19 22" fill="none" xmlns="http://www.w3.org/2000/svg">
<path d="M2.3825 21.8125C1.79744 21.8125 1.29659 21.6042 0.879958 21.1875C0.463323 20.7709 0.255005 20.27 0.255005 19.685V2.66498C0.255005 2.07991 0.463323 1.57906 0.879958 1.16243C1.29659 0.745793 1.79744 0.537476 2.3825 0.537476H10.8925L17.275 6.91998V11.5473C16.9382 11.4232 16.5924 11.3301 16.2378 11.2681C15.8833 11.206 15.5198 11.175 15.1475 11.175V7.98373H9.82876V2.66498H2.3825V19.685H9.13732C9.27915 20.0927 9.45644 20.4739 9.66919 20.8285C9.88194 21.1831 10.1302 21.5111 10.4138 21.8125H2.3825ZM12.9136 21.2806L11.4244 19.7914L13.6583 17.5575L11.4244 15.3236L12.9136 13.8344L15.1475 16.0682L17.3814 13.8344L18.8706 15.3236L16.6633 17.5575L18.8706 19.7914L17.3814 21.2806L15.1475 19.0733L12.9136 21.2806Z" fill="currentColor"/>
</svg>
