<svg width="43" height="43" viewBox="0 0 43 43" fill="none" xmlns="http://www.w3.org/2000/svg">
<circle cx="21.5" cy="21.5" r="21.5" fill="#BA2D0B"/>
<mask id="mask0_38_185" style="mask-type:alpha" maskUnits="userSpaceOnUse" x="5" y="5" width="33" height="33">
<rect x="5" y="5" width="33" height="33" fill="#D9D9D9"/>
</mask>
<g mask="url(#mask0_38_185)">
<path d="M32.7062 22.875H17.375C16.9854 22.875 16.6589 22.7432 16.3953 22.4797C16.1318 22.2161 16 21.8896 16 21.5C16 21.1104 16.1318 20.7839 16.3953 20.5203C16.6589 20.2568 16.9854 20.125 17.375 20.125H32.7062L31.5375 18.9563C31.2625 18.6813 31.1307 18.3604 31.1422 17.9938C31.1536 17.6271 31.2854 17.3062 31.5375 17.0312C31.8125 16.7562 32.1391 16.613 32.5172 16.6016C32.8953 16.5901 33.2219 16.7219 33.4969 16.9969L37.0375 20.5375C37.3125 20.8125 37.45 21.1333 37.45 21.5C37.45 21.8667 37.3125 22.1875 37.0375 22.4625L33.4969 26.0031C33.2219 26.2781 32.8953 26.4099 32.5172 26.3984C32.1391 26.387 31.8125 26.2437 31.5375 25.9688C31.2854 25.6938 31.1536 25.3729 31.1422 25.0063C31.1307 24.6396 31.2625 24.3188 31.5375 24.0438L32.7062 22.875ZM25.625 16V11.875H11.875V31.125H25.625V27C25.625 26.6104 25.7568 26.2839 26.0203 26.0203C26.2839 25.7568 26.6104 25.625 27 25.625C27.3896 25.625 27.7161 25.7568 27.9797 26.0203C28.2432 26.2839 28.375 26.6104 28.375 27V31.125C28.375 31.8813 28.1057 32.5286 27.5672 33.0672C27.0286 33.6057 26.3813 33.875 25.625 33.875H11.875C11.1187 33.875 10.4714 33.6057 9.93281 33.0672C9.39427 32.5286 9.125 31.8813 9.125 31.125V11.875C9.125 11.1187 9.39427 10.4714 9.93281 9.93281C10.4714 9.39427 11.1187 9.125 11.875 9.125H25.625C26.3813 9.125 27.0286 9.39427 27.5672 9.93281C28.1057 10.4714 28.375 11.1187 28.375 11.875V16C28.375 16.3896 28.2432 16.7161 27.9797 16.9797C27.7161 17.2432 27.3896 17.375 27 17.375C26.6104 17.375 26.2839 17.2432 26.0203 16.9797C25.7568 16.7161 25.625 16.3896 25.625 16Z" fill="white"/>
</g>
</svg>
