<svg width="19" height="21" viewBox="0 0 19 21" fill="none" xmlns="http://www.w3.org/2000/svg">
<path d="M8.7481 17.1367L5.1981 13.5867L6.6481 12.1367L8.7481 14.2367L12.9481 10.0367L14.3981 11.4867L8.7481 17.1367ZM2.7981 20.7867C2.2481 20.7867 1.77726 20.5909 1.3856 20.1992C0.993929 19.8076 0.798096 19.3367 0.798096 18.7867V4.78674C0.798096 4.23674 0.993929 3.76591 1.3856 3.37424C1.77726 2.98258 2.2481 2.78674 2.7981 2.78674H3.7981V0.786743H5.7981V2.78674H13.7981V0.786743H15.7981V2.78674H16.7981C17.3481 2.78674 17.8189 2.98258 18.2106 3.37424C18.6023 3.76591 18.7981 4.23674 18.7981 4.78674V18.7867C18.7981 19.3367 18.6023 19.8076 18.2106 20.1992C17.8189 20.5909 17.3481 20.7867 16.7981 20.7867H2.7981ZM2.7981 18.7867H16.7981V8.78674H2.7981V18.7867ZM2.7981 6.78674H16.7981V4.78674H2.7981V6.78674Z" fill="currentColor"/>
</svg>
