<svg width="171" height="171" viewBox="0 0 171 171" fill="none" xmlns="http://www.w3.org/2000/svg">
<path d="M85.3254 98.1161C75.6613 98.1161 66.8855 100.852 58.9979 106.323C51.1103 111.795 45.3901 119.008 41.8371 127.961H128.814C125.261 119.008 119.54 111.795 111.653 106.323C103.765 100.852 94.9895 98.1161 85.3254 98.1161ZM49.5115 85.3254L58.8913 76.3719L67.8448 85.3254L76.7983 76.3719L67.8448 67.4185L76.7983 58.0386L67.8448 49.0851L58.8913 58.0386L49.5115 49.0851L40.558 58.0386L49.5115 67.4185L40.558 76.3719L49.5115 85.3254ZM102.806 85.3254L111.759 76.3719L121.139 85.3254L130.093 76.3719L121.139 67.4185L130.093 58.0386L121.139 49.0851L111.759 58.0386L102.806 49.0851L93.8525 58.0386L102.806 67.4185L93.8525 76.3719L102.806 85.3254ZM85.3254 170.597C73.5296 170.597 62.4443 168.358 52.0696 163.882C41.695 159.405 32.6704 153.329 24.996 145.655C17.3216 137.98 11.246 128.956 6.76931 118.581C2.29257 108.207 0.0541992 97.1213 0.0541992 85.3254C0.0541992 73.5296 2.29257 62.4443 6.76931 52.0696C11.246 41.695 17.3216 32.6704 24.996 24.996C32.6704 17.3216 41.695 11.246 52.0696 6.76931C62.4443 2.29257 73.5296 0.0541992 85.3254 0.0541992C97.1213 0.0541992 108.207 2.29257 118.581 6.76931C128.956 11.246 137.98 17.3216 145.655 24.996C153.329 32.6704 159.405 41.695 163.882 52.0696C168.358 62.4443 170.597 73.5296 170.597 85.3254C170.597 97.1213 168.358 108.207 163.882 118.581C159.405 128.956 153.329 137.98 145.655 145.655C137.98 153.329 128.956 159.405 118.581 163.882C108.207 168.358 97.1213 170.597 85.3254 170.597ZM85.3254 153.542C104.369 153.542 120.5 146.934 133.717 133.717C146.934 120.5 153.542 104.369 153.542 85.3254C153.542 66.2815 146.934 50.151 133.717 36.934C120.5 23.717 104.369 17.1084 85.3254 17.1084C66.2815 17.1084 50.151 23.717 36.934 36.934C23.717 50.151 17.1084 66.2815 17.1084 85.3254C17.1084 104.369 23.717 120.5 36.934 133.717C50.151 146.934 66.2815 153.542 85.3254 153.542Z" fill="currentColor"/>
</svg>
