<svg width="21" height="22" viewBox="0 0 21 22" fill="none" xmlns="http://www.w3.org/2000/svg">
<path d="M10.8933 20.7459V18.9907C10.8933 18.8488 10.9199 18.7114 10.9731 18.5784C11.0263 18.4455 11.1061 18.3258 11.2125 18.2194L16.7708 12.6876C16.9304 12.5281 17.1077 12.4128 17.3027 12.3419C17.4978 12.271 17.6928 12.2355 17.8878 12.2355C18.1006 12.2355 18.3045 12.2754 18.4995 12.3552C18.6945 12.435 18.8718 12.5547 19.0314 12.7142L20.0154 13.6982C20.1573 13.8578 20.2681 14.0351 20.3479 14.2301C20.4277 14.4252 20.4676 14.6202 20.4676 14.8152C20.4676 15.0103 20.4321 15.2097 20.3612 15.4136C20.2902 15.6175 20.175 15.7993 20.0154 15.9588L14.4837 21.4906C14.3773 21.597 14.2576 21.6768 14.1246 21.7299C13.9917 21.7831 13.8542 21.8097 13.7124 21.8097H11.9571C11.6557 21.8097 11.4031 21.7078 11.1992 21.5039C10.9953 21.3 10.8933 21.0473 10.8933 20.7459ZM12.489 20.214H13.4996L16.7176 16.9694L16.2389 16.4641L15.7336 15.9854L12.489 19.2034V20.214ZM2.38291 21.8097C1.79782 21.8097 1.29695 21.6014 0.880294 21.1847C0.463638 20.7681 0.25531 20.2672 0.25531 19.6821V2.6613C0.25531 2.0762 0.463638 1.57533 0.880294 1.15868C1.29695 0.742019 1.79782 0.533691 2.38291 0.533691H10.0157C10.2994 0.533691 10.5698 0.586882 10.8268 0.693262C11.0839 0.799642 11.31 0.950347 11.505 1.14538L16.6645 6.30482C16.8595 6.49985 17.0102 6.72591 17.1166 6.98299C17.223 7.24008 17.2761 7.51046 17.2761 7.79414V10.1079H15.1485V7.98031H10.8933C10.5919 7.98031 10.3393 7.87836 10.1354 7.67446C9.93148 7.47057 9.82953 7.21791 9.82953 6.9165V2.6613H2.38291V19.6821H8.76573V21.8097H2.38291ZM16.2389 16.4641L15.7336 15.9854L16.7176 16.9694L16.2389 16.4641Z" fill="currentColor"/>
</svg>
