<svg width="900" height="600" fill="none" xmlns="http://www.w3.org/2000/svg"><g clip-path="url(#prefix__clip0_1_36)"><path d="M0 79l60-18 60-12 60 12 60 6 60-6 60 24 60-36 60 42 60-42 60 24 60-12 60 30 60-36 60 18 60 6V0H0v79z" fill="#D5F2E3"/><path d="M0 145l60 18 60-6 60-36 60 6 60 42h60l60-54 60 66 60-66 60 48 60-30 60 54 60-42h60l60 12V77l-60-6-60-18-60 36-60-30-60 12-60-24-60 42-60-42-60 36-60-24-60 6-60-6-60-12-60 12L0 77v68z" fill="#BDE4D0"/><path d="M0 325l60-54 60 48 60 12 60-54 60 30 60 42 60-54 60 30 60 6 60-54 60 42 60 24 60-18 60-54 60 12V155l-60-12h-60l-60 42-60-54-60 30-60-48-60 66-60-66-60 54h-60l-60-42-60-6-60 36-60 6-60-18v182z" fill="#A5D6BE"/><path d="M0 487l60-12 60 42 60-60h60l60 66 60-42 60 24 60-12 60-6 60-12 60-6 60 30 60 6 60-42 60 6V281l-60-12-60 54-60 18-60-24-60-42-60 54-60-6-60-30-60 54-60-42-60-30-60 54-60-12-60-48-60 54v164z" fill="#8CC8AC"/><path d="M0 601h900V467l-60-6-60 42-60-6-60-30-60 6-60 12-60 6-60 12-60-24-60 42-60-66h-60l-60 60-60-42-60 12v116z" fill="#73BA9B"/></g><defs><clipPath id="prefix__clip0_1_36"><path fill="#fff" d="M0 0h900v600H0z"/></clipPath></defs></svg>