<svg id="visual" viewBox="0 0 900 600" width="900" height="600" xmlns="http://www.w3.org/2000/svg" xmlns:xlink="http://www.w3.org/1999/xlink" version="1.1"><rect x="0" y="0" width="900" height="600" fill="#73BA9B"></rect><path d="M0 333L16.7 332.8C33.3 332.7 66.7 332.3 100 341.7C133.3 351 166.7 370 200 373.7C233.3 377.3 266.7 365.7 300 368.2C333.3 370.7 366.7 387.3 400 395C433.3 402.7 466.7 401.3 500 398.5C533.3 395.7 566.7 391.3 600 379.2C633.3 367 666.7 347 700 341.8C733.3 336.7 766.7 346.3 800 352.5C833.3 358.7 866.7 361.3 883.3 362.7L900 364L900 601L883.3 601C866.7 601 833.3 601 800 601C766.7 601 733.3 601 700 601C666.7 601 633.3 601 600 601C566.7 601 533.3 601 500 601C466.7 601 433.3 601 400 601C366.7 601 333.3 601 300 601C266.7 601 233.3 601 200 601C166.7 601 133.3 601 100 601C66.7 601 33.3 601 16.7 601L0 601Z" fill="#bde4d0"></path><path d="M0 397L16.7 398.3C33.3 399.7 66.7 402.3 100 394.8C133.3 387.3 166.7 369.7 200 368.7C233.3 367.7 266.7 383.3 300 382.8C333.3 382.3 366.7 365.7 400 367.5C433.3 369.3 466.7 389.7 500 391.7C533.3 393.7 566.7 377.3 600 366.5C633.3 355.7 666.7 350.3 700 358.7C733.3 367 766.7 389 800 385.7C833.3 382.3 866.7 353.7 883.3 339.3L900 325L900 601L883.3 601C866.7 601 833.3 601 800 601C766.7 601 733.3 601 700 601C666.7 601 633.3 601 600 601C566.7 601 533.3 601 500 601C466.7 601 433.3 601 400 601C366.7 601 333.3 601 300 601C266.7 601 233.3 601 200 601C166.7 601 133.3 601 100 601C66.7 601 33.3 601 16.7 601L0 601Z" fill="#c7ead7"></path><path d="M0 426L16.7 423.2C33.3 420.3 66.7 414.7 100 417.8C133.3 421 166.7 433 200 439.8C233.3 446.7 266.7 448.3 300 448.2C333.3 448 366.7 446 400 439.5C433.3 433 466.7 422 500 412C533.3 402 566.7 393 600 398.3C633.3 403.7 666.7 423.3 700 429.3C733.3 435.3 766.7 427.7 800 414.8C833.3 402 866.7 384 883.3 375L900 366L900 601L883.3 601C866.7 601 833.3 601 800 601C766.7 601 733.3 601 700 601C666.7 601 633.3 601 600 601C566.7 601 533.3 601 500 601C466.7 601 433.3 601 400 601C366.7 601 333.3 601 300 601C266.7 601 233.3 601 200 601C166.7 601 133.3 601 100 601C66.7 601 33.3 601 16.7 601L0 601Z" fill="#d1f0e0"></path><path d="M0 427L16.7 425.3C33.3 423.7 66.7 420.3 100 425.8C133.3 431.3 166.7 445.7 200 459.3C233.3 473 266.7 486 300 488.2C333.3 490.3 366.7 481.7 400 481.2C433.3 480.7 466.7 488.3 500 488.5C533.3 488.7 566.7 481.3 600 473.2C633.3 465 666.7 456 700 460.3C733.3 464.7 766.7 482.3 800 485.8C833.3 489.3 866.7 478.7 883.3 473.3L900 468L900 601L883.3 601C866.7 601 833.3 601 800 601C766.7 601 733.3 601 700 601C666.7 601 633.3 601 600 601C566.7 601 533.3 601 500 601C466.7 601 433.3 601 400 601C366.7 601 333.3 601 300 601C266.7 601 233.3 601 200 601C166.7 601 133.3 601 100 601C66.7 601 33.3 601 16.7 601L0 601Z" fill="#d5f2e3"></path><path d="M0 491L16.7 496.8C33.3 502.7 66.7 514.3 100 516C133.3 517.7 166.7 509.3 200 501.5C233.3 493.7 266.7 486.3 300 489.8C333.3 493.3 366.7 507.7 400 510.5C433.3 513.3 466.7 504.7 500 505.3C533.3 506 566.7 516 600 519.5C633.3 523 666.7 520 700 509C733.3 498 766.7 479 800 468.2C833.3 457.3 866.7 454.7 883.3 453.3L900 452L900 601L883.3 601C866.7 601 833.3 601 800 601C766.7 601 733.3 601 700 601C666.7 601 633.3 601 600 601C566.7 601 533.3 601 500 601C466.7 601 433.3 601 400 601C366.7 601 333.3 601 300 601C266.7 601 233.3 601 200 601C166.7 601 133.3 601 100 601C66.7 601 33.3 601 16.7 601L0 601Z" fill="#d1f0e0"></path><path d="M0 543L16.7 536.5C33.3 530 66.7 517 100 508.3C133.3 499.7 166.7 495.3 200 496.2C233.3 497 266.7 503 300 506C333.3 509 366.7 509 400 513C433.3 517 466.7 525 500 530C533.3 535 566.7 537 600 534C633.3 531 666.7 523 700 514.3C733.3 505.7 766.7 496.3 800 499.2C833.3 502 866.7 517 883.3 524.5L900 532L900 601L883.3 601C866.7 601 833.3 601 800 601C766.7 601 733.3 601 700 601C666.7 601 633.3 601 600 601C566.7 601 533.3 601 500 601C466.7 601 433.3 601 400 601C366.7 601 333.3 601 300 601C266.7 601 233.3 601 200 601C166.7 601 133.3 601 100 601C66.7 601 33.3 601 16.7 601L0 601Z" fill="#c7ead7"></path><path d="M0 567L16.7 566.7C33.3 566.3 66.7 565.7 100 566.5C133.3 567.3 166.7 569.7 200 566.8C233.3 564 266.7 556 300 553.7C333.3 551.3 366.7 554.7 400 551.7C433.3 548.7 466.7 539.3 500 536.3C533.3 533.3 566.7 536.7 600 537.5C633.3 538.3 666.7 536.7 700 540.5C733.3 544.3 766.7 553.7 800 554.2C833.3 554.7 866.7 546.3 883.3 542.2L900 538L900 601L883.3 601C866.7 601 833.3 601 800 601C766.7 601 733.3 601 700 601C666.7 601 633.3 601 600 601C566.7 601 533.3 601 500 601C466.7 601 433.3 601 400 601C366.7 601 333.3 601 300 601C266.7 601 233.3 601 200 601C166.7 601 133.3 601 100 601C66.7 601 33.3 601 16.7 601L0 601Z" fill="#bde4d0"></path></svg>