<?xml version="1.0" encoding="UTF-8"?><svg id="a" xmlns="http://www.w3.org/2000/svg" viewBox="0 0 380.97 381"><defs><style>.c{fill:#73ba9b;}</style></defs><g id="b"><path class="c" d="M50.86,319.82c71.32,77.21,191.73,81.98,268.93,10.66,39.04-36.06,61.22-86.81,61.18-139.96V76.23c.02-10.52-8.49-19.06-19.01-19.09-.41,0-.81,.01-1.22,.04-24.84,2.41-49.42,7.07-73.41,13.92C264.5,39.42,232.95,15.06,196.52,.99c-3.92-1.31-8.17-1.31-12.1,0-36.26,14.05-67.69,38.28-90.5,69.77-24.08-6.82-48.75-11.37-73.68-13.58C9.75,56.52,.7,64.49,.04,74.99c-.03,.41-.04,.82-.04,1.24v114.29c.05,47.07,17.66,92.44,49.37,127.23,.45,.73,.94,1.42,1.49,2.08ZM345.88,190.46c-.09,84.58-68.64,153.12-153.21,153.21-39.09,.14-76.71-14.86-104.97-41.87,30.85-119.28,138.12-187.02,258.18-204.81v93.46ZM133.57,82.6c16.05-18.66,35.95-33.62,58.34-43.86,22.42,10.15,42.33,25.11,58.32,43.82-20.14,7.48-39.65,16.59-58.32,27.23-.59-.34-1.26-.63-1.92-.98-8.36-4.71-16.71-9.03-25.05-12.95l-2.91-1.36c-9.58-4.4-18.94-8.33-28.13-11.78l-.33-.13Zm-93.46,14.56c40.51,6.31,79.83,18.69,116.65,36.71-43.34,32.17-76.52,76.12-95.59,126.61-.36,.96-.79,1.92-1.15,2.83-.15,.42-.34,.8-.5,1.23-12.71-22.62-19.4-48.13-19.42-74.08V97.16Z"/></g><g><path class="c" d="M174.24,231.15c1.94-1.49,4.66-2.23,8.14-2.23,2.58,0,5.25,.7,8.02,2.11,.99,.5,1.99,1.09,2.98,1.75,3.26,2.17,7.63,1.6,10.2-1.36l.4-.46c3.22-3.7,2.29-9.46-1.97-11.88-1.57-.89-3.21-1.67-4.92-2.34-4.66-1.82-9.58-2.73-14.77-2.73-8.92,0-15.81,2.02-20.68,6.06-4.87,4.04-7.31,9.75-7.31,17.12,0,5.23,1.64,10.01,4.93,14.32,3.29,4.32,7.92,7.95,13.91,10.88l12.12,5.88c4.64,2.18,6.95,5.11,6.95,8.8,0,2.81-1.13,4.97-3.39,6.48-2.26,1.51-5.51,2.26-9.75,2.26-3.65,0-7.62-.49-11.92-1.49-1.43-.33-2.87-.71-4.31-1.13-4.59-1.35-9.31,1.62-9.94,6.36l-.03,.22c-.51,3.85,1.86,7.53,5.61,8.54,1.8,.48,3.68,.9,5.66,1.26,4.52,.81,9.17,1.22,13.97,1.22,9.95,0,17.61-2.03,23-6.09,5.39-4.06,8.08-9.84,8.08-17.33,0-4.72-1.61-9.13-4.84-13.25s-7.82-7.73-13.76-10.82l-11.41-5.88c-2.54-1.35-4.49-2.85-5.85-4.52-1.37-1.66-2.05-3.43-2.05-5.29,0-2.81,.97-4.96,2.91-6.45Z"/><path class="c" d="M245.79,215.13l-5.76-.04h0s-9.93-.07-9.93-.07c-3.18-.02-5.78,2.54-5.8,5.73l-.5,72.87c-.02,3.18,2.54,5.78,5.73,5.8l9.93,.07h0s5.76,.04,5.76,.04c26.43,.18,39.74-13.4,39.93-40.74,.2-28.92-12.92-43.48-39.35-43.66Zm16.95,62.91c-3.89,4.39-9.7,6.56-17.43,6.51h0c-3.18-.02-5.75-2.62-5.73-5.8l.29-42.91c.02-3.18,2.62-5.75,5.8-5.73h0c7.73,.05,13.51,2.49,17.34,7.31,3.83,4.82,5.71,11.91,5.65,21.26-.06,8.52-2.03,14.97-5.93,19.37Z"/></g></svg>